<?xml version="1.0" encoding="utf-8"?>
<!-- Generator: Adobe Illustrator 21.0.0, SVG Export Plug-In . SVG Version: 6.00 Build 0)  -->
<svg version="1.1" id="Layer_1" xmlns="http://www.w3.org/2000/svg" xmlns:xlink="http://www.w3.org/1999/xlink" x="0px" y="0px"
	 viewBox="0 0 277 50" style="enable-background:new 0 0 277 50;" xml:space="preserve">
<style type="text/css">
	.st0{fill:none;}
	.st1{fill:#FFFFFF;}
</style>
<g>
	<path class="st0" d="M172.9,35.8c1.9,0,3.7-0.6,5.5-1.9c1.7-1.3,3.1-3.2,4.3-5.7c0.2-0.4,0.3-0.7,0.4-1.1l-12.7,8.2
		C171.2,35.7,172,35.8,172.9,35.8z"/>
	<path class="st0" d="M178,13c-1.9,0-3.7,0.6-5.4,1.9c-1.7,1.3-3.2,3.2-4.3,5.7c-1.1,2.5-1.7,5-1.7,7.6c0,0.3,0,0.6,0,0.9l16.5-13.4
		c-0.2-0.3-0.4-0.6-0.6-0.8C181.4,13.6,179.9,13,178,13z"/>
	<path class="st1" d="M182.6,28.3c-1.1,2.5-2.6,4.4-4.3,5.7c-1.7,1.3-3.5,1.9-5.5,1.9c-0.9,0-1.8-0.2-2.5-0.5l-5,3.2
		c1.7,0.9,3.8,1.3,6.2,1.3c3.9,0,7.2-0.9,10.1-2.8c2.8-1.9,5.1-4.4,6.8-7.4c1.3-2.4,2.1-4.9,2.4-7.4l-7.7,4.9
		C182.9,27.5,182.8,27.9,182.6,28.3z"/>
	<path class="st1" d="M166.6,28.2c0-2.5,0.6-5.1,1.7-7.6c1.1-2.5,2.5-4.4,4.3-5.7c1.7-1.3,3.5-1.9,5.4-1.9c1.9,0,3.4,0.6,4.6,1.9
		c0.2,0.2,0.4,0.5,0.6,0.8l4.6-3.8c-2-2-4.9-3-8.6-3c-3.8,0-7.1,0.9-9.9,2.8c-2.8,1.9-5.1,4.3-6.8,7.4c-1.7,3.1-2.5,6.3-2.5,9.5
		c0,1.9,0.3,3.6,1,5.1l5.7-4.7C166.6,28.8,166.6,28.5,166.6,28.2z"/>
	<path class="st1" d="M0.1,39.3L1,34.5c2.9,1.2,5.4,1.8,7.5,1.8c1.9,0,3.3-0.4,4.2-1.2c0.9-0.8,1.4-1.8,1.4-3.1c0-1.1-0.4-2-1.1-2.8
		c-0.7-0.8-1.5-1.5-2.3-2.1l-1.7-1.2c-1.6-1.2-2.8-2.3-3.6-3.4c-0.8-1.1-1.2-2.4-1.2-3.8c0-1.6,0.5-3.1,1.4-4.6
		c0.9-1.4,2.2-2.5,3.8-3.3c1.6-0.8,3.6-1.2,5.9-1.2c2.6,0,5.3,0.4,8.2,1.3l-0.9,4.4c-2.8-1.1-5.2-1.7-7.3-1.7c-1.5,0-2.7,0.3-3.6,1
		c-0.9,0.7-1.3,1.6-1.3,2.6c0,0.8,0.3,1.5,0.8,2.1c0.5,0.6,1.3,1.4,2.5,2.2l1.8,1.4c2.1,1.6,3.5,3,4.2,4.2c0.7,1.2,1.1,2.5,1.1,3.8
		c0,1.6-0.5,3.1-1.5,4.6c-1,1.5-2.5,2.7-4.3,3.5c-1.9,0.8-4.3,1.2-7.2,1.2C5.2,40.3,2.6,40,0.1,39.3z"/>
	<path class="st1" d="M31,10.4h6.2l-4,18.4c-0.2,1-0.3,1.9-0.3,2.7c0,1.4,0.5,2.6,1.5,3.4c1,0.8,2.2,1.3,3.7,1.3
		c1.6,0,3-0.5,4.2-1.5c1.2-1,2.1-3,2.6-5.8l3.7-18.5h5.5l-3.4,17.1c-0.7,3.4-1.6,5.9-2.7,7.6c-1.1,1.7-2.6,3-4.5,3.9
		c-1.9,0.9-4,1.4-6.4,1.4c-3,0-5.4-0.8-7.4-2.2c-2-1.5-3-3.5-3-6.1c0-1.2,0.2-2.5,0.5-3.9L31,10.4z"/>
	<path class="st1" d="M54.6,39.6l5.8-29.2h10.2c3.3,0,5.5,0.6,6.7,1.7c1.1,1.1,1.7,2.5,1.7,4.1c0,1.9-0.6,3.8-1.8,5.9
		c-1.2,2-2.8,3.5-4.9,4.6c-2.1,1-4.5,1.5-7.3,1.5h-2.2l-2.3,11.5H54.6z M63.6,24.3H65c1.5,0,2.8-0.3,3.9-0.8c1.1-0.6,2-1.4,2.7-2.7
		c0.7-1.2,1-2.4,1-3.6c0-0.9-0.3-1.6-1-2c-0.7-0.5-2.2-0.7-4.5-0.7h-1.6L63.6,24.3z"/>
	<path class="st1" d="M79.4,39.6l5.8-29.2h18.4l-0.8,4H90.5l-1.6,8.1h9.9L98,26.3h-9.9l-1.8,9.2h13.2l-0.8,4H79.4z"/>
	<path class="st1" d="M103.6,39.6l5.8-29.2h11.1c2,0,3.4,0.2,4.4,0.6c1,0.4,1.8,1,2.4,1.9c0.6,0.9,0.9,2,0.9,3.1
		c0,1.9-0.7,3.8-2,5.6c-1.3,1.8-3.2,3.3-5.7,4.4l6.3,13.6h-6.6l-5-12.2H112l-2.4,12.2H103.6z M112.8,23.5h1.8c2.3,0,4.1-0.7,5.4-2.1
		c1.3-1.4,1.9-2.9,1.9-4.4c0-0.6-0.1-1.1-0.4-1.4c-0.3-0.4-0.7-0.7-1.4-0.9c-0.6-0.2-1.9-0.3-3.8-0.3h-1.7L112.8,23.5z"/>
	<path class="st1" d="M154.5,38.7c-4.4,1.1-8.1,1.6-11.2,1.6c-3.7,0-6.6-1-8.7-3c-2.1-2-3.1-4.7-3.1-8s0.8-6.6,2.5-9.6
		c1.7-3.1,3.9-5.5,6.7-7.3s6.2-2.7,10.1-2.7c2.5,0,5.3,0.4,8.7,1.1l-0.9,4.7c-1.5-0.5-2.7-0.9-3.5-1.1c-0.9-0.2-1.7-0.4-2.5-0.5
		c-0.8-0.1-1.5-0.2-2.3-0.2c-2.4,0-4.4,0.6-6.2,1.9c-1.8,1.3-3.2,3.2-4.4,5.7c-1.2,2.5-1.7,5-1.7,7.5c0,2.4,0.7,4.2,2,5.6
		c1.3,1.3,3.2,2,5.6,2c1.1,0,2.3-0.2,3.5-0.6l1.8-9.3h6L154.5,38.7z"/>
	<path class="st1" d="M224.1,39.6l16.2-29.2h6.2l5.6,29.2h-6l-1.5-7.4h-11.6l-4.1,7.4H224.1z M235.3,28.2h8.7l-2.3-11.4L235.3,28.2z
		"/>
	<path class="st1" d="M256.5,39.6l5.8-29.2h6.1l-5,25.2h13.5l-0.8,4H256.5z"/>
	<g>
		<path class="st1" d="M226.1,7.2c-0.7-1-1.5-1.9-2.4-2.7c-5.9-5.4-14.8-6.1-21.6-1.3c-1,0.7-1.9,1.5-2.7,2.4
			c-5.4,5.9-6.1,14.8-1.3,21.6c0.7,1,1.5,1.9,2.4,2.7c5.9,5.4,14.8,6.1,21.6,1.3c1-0.7,1.9-1.5,2.7-2.4
			C230.1,22.9,230.9,13.9,226.1,7.2l-0.2,0.1l0,0L226.1,7.2z M228.1,19.8L228.1,19.8L228.1,19.8L228.1,19.8z M227.8,19.8L227.8,19.8
			c-0.5,3-1.8,5.8-4,8.1c-0.7,0.8-1.6,1.5-2.5,2.2c-3.6,2.6-7.9,3.4-11.9,2.8c-3-0.5-5.8-1.8-8.2-4c-0.8-0.7-1.5-1.6-2.2-2.5
			c-2.6-3.6-3.4-7.9-2.8-11.9c0.5-3,1.8-5.8,4-8.1c0.7-0.8,1.6-1.6,2.5-2.2c3.6-2.6,7.9-3.4,11.9-2.8c3,0.5,5.8,1.8,8.1,4
			c0.8,0.7,1.6,1.6,2.2,2.5C227.6,11.5,228.5,15.7,227.8,19.8z"/>
		<path class="st1" d="M215.9,14.3l-4.2,5.1c0,0-1.4,0-6.4-2.3c0,0-0.2-2.2,0.5-6.5c0,0,3.7-1.6,6.7-1.7
			C212.6,8.9,213.9,10.9,215.9,14.3z"/>
		<path class="st1" d="M200.2,27.9c1.9-0.4,2.6-1.1,2.6-1.1c-1.6-4.4-1.7-6.2-1.7-6.2c-1.9-0.4-4.1-2.6-4.1-2.6
			c-0.8,2.1-0.8,3.5-0.7,4.1c0.4,1.2,0.9,2.4,1.6,3.6C199.2,27.3,200.2,27.9,200.2,27.9z"/>
		<path class="st1" d="M213.4,25.3c0,0,3,1.1,6.1,1.2c0,0,0.3,1.9-0.9,4.2c0,0-3.3,1.7-6.5,1.5c0,0-1.8-0.6-3.2-3.2
			C208.9,29,211.6,27.6,213.4,25.3z"/>
		<g>
			<polygon class="st1" points="211.9,19.2 213.6,25.4 213.3,25.5 211.5,19.3 211.9,19.2 			"/>
		</g>
		<g>
			<path class="st1" d="M205.6,17.1l-0.1,0.1c0,0-0.8,0.6-1.7,1.3l0,0c-0.9,0.7-2,1.6-2.6,2.2l0,0l-0.1,0.1l-0.2-0.2l0.1-0.1
				c1.2-1.2,4.3-3.6,4.3-3.6l0,0l0.1-0.1L205.6,17.1L205.6,17.1z"/>
		</g>
		<g>
			<path class="st1" d="M202.8,26.6c2.4,1.5,4.8,2.1,5.8,2.2l0,0c0.3,0.1,0.5,0.1,0.5,0.1l0,0l0.2,0l0,0.3l-0.2,0
				c0,0-3.1-0.3-6.5-2.3l0,0l-0.1-0.1l0.2-0.3L202.8,26.6L202.8,26.6z"/>
		</g>
		<path class="st1" d="M200.7,29.1c-0.1-0.3-0.1-0.5-0.2-0.7c-0.1-0.3-0.1-0.5-0.1-0.7c0-0.1,0-0.1,0-0.1c0,0,0,0,0,0l0,0l0.1-0.2
			l-0.3-0.1l0,0.2c0,0,0,0.3,0.1,1.2C200.4,28.8,200.5,29,200.7,29.1z"/>
		<path class="st1" d="M202,7.7c0.9-2.6,2.4-4.4,2.4-4.4c-0.2,0-0.9,0-1.5,0c-0.1,0.1-0.3,0.2-0.4,0.3c-2.4,1.7-4.3,4-5.4,6.6
			c0.3,1,0.6,1.2,0.6,1.2C198.9,9.5,202,7.7,202,7.7z"/>
		<g>
			<path class="st1" d="M202.1,7.6c2.3,1.8,3.9,2.8,3.9,2.9l0,0l0,0l0.1,0.1l-0.2,0.3l-0.1-0.1c0,0-1.6-1.1-3.9-2.9l0,0l-0.1-0.1
				l0.2-0.3L202.1,7.6L202.1,7.6z"/>
		</g>
		<g>
			<path class="st1" d="M197.9,11l-0.1,0.2c0,0-0.1,0.2-0.2,0.6l0,0c-0.1,0.4-0.2,0.9-0.3,1.6l0,0c-0.2,1.3-0.3,3.1-0.1,4.9l0,0
				l0,0.2l-0.3,0l0-0.2c-0.5-3.7,0.6-7.3,0.6-7.3l0,0h0l0.1-0.2L197.9,11L197.9,11z"/>
		</g>
		<path class="st1" d="M223.7,21.5c0,0-0.5-3-1.7-6.1l2.6-4.5c0,0,1.9,1.2,3.3,3.5c0,0,0.6,4.2-0.8,6.5
			C227.2,20.9,225.8,21.3,223.7,21.5z"/>
		<path class="st1" d="M221.1,5.3c0.3-1-0.2-1.9-0.4-2.3c-2.4-1.4-5.1-2.2-7.9-2.4c-1,0.4-1.8,0.9-1.8,0.9c1.6,0.7,4,3.1,4,3.1
			C216.1,4.3,221.1,5.3,221.1,5.3z"/>
		<g>
			<path class="st1" d="M215.1,4.5L215,4.7c0,0-0.5,0.8-1,1.7l0,0c-0.5,0.9-1.1,2-1.3,2.6l0,0l-0.1,0.2L212.4,9l0.1-0.2
				c0.4-1.3,2.3-4.3,2.3-4.3l0,0l0.1-0.2L215.1,4.5L215.1,4.5z"/>
		</g>
		<g>
			<path class="st1" d="M204,3.3c1.5-0.6,7.3-2.1,7.3-2.1l0,0l0.2,0l0.1,0.3l-0.2,0c0,0-1.5,0.4-3.1,0.8l0,0c-1.6,0.4-3.5,1-4.2,1.2
				l0,0l-0.2,0.1l-0.1-0.3L204,3.3L204,3.3z"/>
		</g>
		<g>
			<polygon class="st1" points="222.3,15.2 222.2,15.5 215.7,14.4 215.8,14.1 222.3,15.2 			"/>
		</g>
		<g>
			<path class="st1" d="M224,21.4l-0.1,0.1c0,0-1.9,3-4.3,5l0,0l-0.1,0.1l-0.2-0.3l0.1-0.1c1.2-1,2.2-2.3,3-3.3l0,0
				c0.8-1,1.2-1.7,1.2-1.7l0,0l0.1-0.1L224,21.4L224,21.4z"/>
		</g>
		<g>
			<path class="st1" d="M221,4.9c0.3,0.3,0.7,0.7,1,1.2l0,0c1.4,1.9,3,5,3,5l0,0l0.1,0.2l-0.3,0.2l-0.1-0.2c0,0-1.6-3-2.9-4.9l0,0
				c-0.4-0.5-0.7-0.9-1-1.2l0,0L220.6,5l0.2-0.3L221,4.9L221,4.9z"/>
		</g>
		<path class="st1" d="M228,14.1c-0.1,0.1-0.1,0.1-0.1,0.1c0,0,0,0,0,0l-0.1,0.1l0.2,0.3l0.1-0.1c0,0,0.1-0.1,0.3-0.4
			c0-0.2-0.1-0.3-0.1-0.5C228.1,13.8,228,14,228,14.1z"/>
		<path class="st1" d="M227.2,23.9c0.3-1.8,0.1-3.2,0.1-3.2l0-0.2l-0.3,0.1l0,0.2c0,0,0,0.2,0,0.5c0,0.8,0,2.5-0.6,4.1
			C226.7,24.9,227,24.4,227.2,23.9z"/>
		<g>
			<path class="st1" d="M218.2,30.5c0,0,0.2,0,0.5,0l0,0c0.3,0,0.7-0.1,1.2-0.2l0,0c1-0.2,2.3-0.6,3.3-1.3l0,0l0.1-0.1l0.2,0.3
				l-0.1,0.1c-2.2,1.5-5.2,1.5-5.2,1.5l0,0h-0.2v-0.3H218.2L218.2,30.5z"/>
		</g>
		<path class="st1" d="M209.9,33.6c1.3-0.5,2.3-1.2,2.4-1.3c0,0,0,0,0,0l0.1-0.1l-0.2-0.3l-0.1,0.1l0,0c0,0,0,0,0,0
			c-0.1,0.1-1.4,1-3,1.5C209.4,33.5,209.6,33.5,209.9,33.6z"/>
	</g>
	<polygon class="st1" points="201.1,3.8 200.6,4.2 145.5,48.9 194.9,17.2 	"/>
	<polygon class="st1" points="217.1,33.6 205.1,32.6 151.4,50 212.9,35 	"/>
</g>
</svg>
